<mxfile host="Electron" agent="Mozilla/5.0 (Windows NT 10.0; Win64; x64) AppleWebKit/537.36 (KHTML, like Gecko) draw.io/24.7.17 Chrome/128.0.6613.36 Electron/32.0.1 Safari/537.36" version="24.7.17">
  <diagram name="Страница — 1" id="AGJ4T7gUV2RrVNilVEZO">
    <mxGraphModel dx="2205" dy="606" grid="1" gridSize="10" guides="1" tooltips="1" connect="1" arrows="0" fold="1" page="1" pageScale="1" pageWidth="1169" pageHeight="827" math="0" shadow="0">
      <root>
        <mxCell id="0" />
        <mxCell id="1" parent="0" />
        <mxCell id="E9T-sOof5d7wJz7EKvrC-45" value="" style="shape=table;startSize=0;container=1;collapsible=0;childLayout=tableLayout;" parent="1" vertex="1">
          <mxGeometry x="280" y="60" width="200" height="120" as="geometry" />
        </mxCell>
        <mxCell id="E9T-sOof5d7wJz7EKvrC-46" value="" style="shape=tableRow;horizontal=0;startSize=0;swimlaneHead=0;swimlaneBody=0;strokeColor=inherit;top=0;left=0;bottom=0;right=0;collapsible=0;dropTarget=0;fillColor=none;points=[[0,0.5],[1,0.5]];portConstraint=eastwest;" parent="E9T-sOof5d7wJz7EKvrC-45" vertex="1">
          <mxGeometry width="200" height="40" as="geometry" />
        </mxCell>
        <mxCell id="E9T-sOof5d7wJz7EKvrC-47" value="&lt;font face=&quot;Times New Roman&quot; style=&quot;font-size: 16px;&quot;&gt;users&lt;/font&gt;" style="shape=partialRectangle;html=1;whiteSpace=wrap;connectable=0;strokeColor=inherit;overflow=hidden;fillColor=none;top=0;left=0;bottom=0;right=0;pointerEvents=1;align=center;" parent="E9T-sOof5d7wJz7EKvrC-46" vertex="1">
          <mxGeometry width="200" height="40" as="geometry">
            <mxRectangle width="200" height="40" as="alternateBounds" />
          </mxGeometry>
        </mxCell>
        <mxCell id="E9T-sOof5d7wJz7EKvrC-48" value="" style="shape=tableRow;horizontal=0;startSize=0;swimlaneHead=0;swimlaneBody=0;strokeColor=inherit;top=0;left=0;bottom=0;right=0;collapsible=0;dropTarget=0;fillColor=none;points=[[0,0.5],[1,0.5]];portConstraint=eastwest;" parent="E9T-sOof5d7wJz7EKvrC-45" vertex="1">
          <mxGeometry y="40" width="200" height="80" as="geometry" />
        </mxCell>
        <mxCell id="E9T-sOof5d7wJz7EKvrC-49" value="&lt;div style=&quot;font-size: 16px;&quot;&gt;&lt;font face=&quot;Times New Roman&quot; style=&quot;font-size: 16px;&quot;&gt;&amp;nbsp;user_id (PK)&lt;/font&gt;&lt;/div&gt;&lt;font face=&quot;h4QID22mVBc5x-CDYiEK&quot; style=&quot;font-size: 16px;&quot;&gt;&amp;nbsp;name VARCHAR&lt;/font&gt;&lt;div style=&quot;font-size: 16px;&quot;&gt;&lt;font face=&quot;h4QID22mVBc5x-CDYiEK&quot; style=&quot;font-size: 16px;&quot;&gt;&amp;nbsp;address VARCHAR&lt;/font&gt;&lt;/div&gt;" style="shape=partialRectangle;html=1;whiteSpace=wrap;connectable=0;strokeColor=inherit;overflow=hidden;fillColor=none;top=0;left=0;bottom=0;right=0;pointerEvents=1;align=left;" parent="E9T-sOof5d7wJz7EKvrC-48" vertex="1">
          <mxGeometry width="200" height="80" as="geometry">
            <mxRectangle width="200" height="80" as="alternateBounds" />
          </mxGeometry>
        </mxCell>
        <mxCell id="E9T-sOof5d7wJz7EKvrC-50" value="" style="shape=table;startSize=0;container=1;collapsible=0;childLayout=tableLayout;" parent="1" vertex="1">
          <mxGeometry x="-50" y="170" width="220" height="180" as="geometry" />
        </mxCell>
        <mxCell id="E9T-sOof5d7wJz7EKvrC-51" value="" style="shape=tableRow;horizontal=0;startSize=0;swimlaneHead=0;swimlaneBody=0;strokeColor=inherit;top=0;left=0;bottom=0;right=0;collapsible=0;dropTarget=0;fillColor=none;points=[[0,0.5],[1,0.5]];portConstraint=eastwest;" parent="E9T-sOof5d7wJz7EKvrC-50" vertex="1">
          <mxGeometry width="220" height="36" as="geometry" />
        </mxCell>
        <mxCell id="E9T-sOof5d7wJz7EKvrC-52" value="&lt;font style=&quot;font-size: 16px;&quot; face=&quot;Times New Roman&quot;&gt;orders&lt;/font&gt;" style="shape=partialRectangle;html=1;whiteSpace=wrap;connectable=0;strokeColor=inherit;overflow=hidden;fillColor=none;top=0;left=0;bottom=0;right=0;pointerEvents=1;" parent="E9T-sOof5d7wJz7EKvrC-51" vertex="1">
          <mxGeometry width="220" height="36" as="geometry">
            <mxRectangle width="220" height="36" as="alternateBounds" />
          </mxGeometry>
        </mxCell>
        <mxCell id="E9T-sOof5d7wJz7EKvrC-53" value="" style="shape=tableRow;horizontal=0;startSize=0;swimlaneHead=0;swimlaneBody=0;strokeColor=inherit;top=0;left=0;bottom=0;right=0;collapsible=0;dropTarget=0;fillColor=none;points=[[0,0.5],[1,0.5]];portConstraint=eastwest;" parent="E9T-sOof5d7wJz7EKvrC-50" vertex="1">
          <mxGeometry y="36" width="220" height="144" as="geometry" />
        </mxCell>
        <mxCell id="E9T-sOof5d7wJz7EKvrC-54" value="&lt;font style=&quot;font-size: 16px;&quot; face=&quot;Times New Roman&quot;&gt;&amp;nbsp;order_id (PK)&lt;/font&gt;&lt;div&gt;&lt;span style=&quot;color: rgb(10, 3, 0); font-family: iHlJsmXUPDdTPYYUEvS6; font-size: 16px; white-space: pre; background-color: rgb(255, 255, 255);&quot;&gt; user_id (FK)&lt;/span&gt;&lt;font face=&quot;Times New Roman&quot;&gt;&lt;span style=&quot;font-size: 16px;&quot;&gt;&lt;br&gt;&lt;/span&gt;&lt;/font&gt;&lt;div style=&quot;font-size: 16px;&quot;&gt;&lt;span style=&quot;background-color: rgb(255, 255, 255);&quot;&gt;&lt;font style=&quot;font-size: 16px;&quot; face=&quot;iHlJsmXUPDdTPYYUEvS6&quot; color=&quot;#0a0300&quot;&gt;&amp;nbsp;number INT&lt;/font&gt;&lt;/span&gt;&lt;/div&gt;&lt;div style=&quot;font-size: 16px;&quot;&gt;&lt;span style=&quot;background-color: rgb(255, 255, 255);&quot;&gt;&lt;font style=&quot;font-size: 16px;&quot; face=&quot;iHlJsmXUPDdTPYYUEvS6&quot; color=&quot;#0a0300&quot;&gt;&amp;nbsp;created_at TIMESTAMP WITH&amp;nbsp; &amp;nbsp;TIME ZONE&lt;/font&gt;&lt;/span&gt;&lt;/div&gt;&lt;div style=&quot;font-size: 16px;&quot;&gt;&lt;span style=&quot;color: rgb(10, 3, 0); font-family: eMbRWu4DokQ9QdMwVr3S; white-space: pre; background-color: rgb(255, 255, 255);&quot;&gt; status VARCHAR&lt;/span&gt;&lt;/div&gt;&lt;/div&gt;" style="shape=partialRectangle;html=1;whiteSpace=wrap;connectable=0;strokeColor=inherit;overflow=hidden;fillColor=none;top=0;left=0;bottom=0;right=0;pointerEvents=1;align=left;" parent="E9T-sOof5d7wJz7EKvrC-53" vertex="1">
          <mxGeometry width="220" height="144" as="geometry">
            <mxRectangle width="220" height="144" as="alternateBounds" />
          </mxGeometry>
        </mxCell>
        <mxCell id="E9T-sOof5d7wJz7EKvrC-55" value="" style="shape=table;startSize=0;container=1;collapsible=0;childLayout=tableLayout;" parent="1" vertex="1">
          <mxGeometry x="600" y="160" width="230.6199999999999" height="179" as="geometry" />
        </mxCell>
        <mxCell id="E9T-sOof5d7wJz7EKvrC-56" value="" style="shape=tableRow;horizontal=0;startSize=0;swimlaneHead=0;swimlaneBody=0;strokeColor=inherit;top=0;left=0;bottom=0;right=0;collapsible=0;dropTarget=0;fillColor=none;points=[[0,0.5],[1,0.5]];portConstraint=eastwest;" parent="E9T-sOof5d7wJz7EKvrC-55" vertex="1">
          <mxGeometry width="230.6199999999999" height="40" as="geometry" />
        </mxCell>
        <mxCell id="E9T-sOof5d7wJz7EKvrC-57" value="&lt;div style=&quot;line-height: 19px; white-space: pre;&quot;&gt;&lt;span style=&quot;background-color: rgb(255, 255, 255);&quot;&gt;&lt;font face=&quot;Times New Roman&quot; style=&quot;font-size: 16px;&quot; color=&quot;#0a0300&quot;&gt;delivery_points&lt;/font&gt;&lt;/span&gt;&lt;/div&gt;" style="shape=partialRectangle;html=1;whiteSpace=wrap;connectable=0;strokeColor=inherit;overflow=hidden;fillColor=none;top=0;left=0;bottom=0;right=0;pointerEvents=1;" parent="E9T-sOof5d7wJz7EKvrC-56" vertex="1">
          <mxGeometry width="231" height="40" as="geometry">
            <mxRectangle width="231" height="40" as="alternateBounds" />
          </mxGeometry>
        </mxCell>
        <mxCell id="E9T-sOof5d7wJz7EKvrC-58" value="" style="shape=tableRow;horizontal=0;startSize=0;swimlaneHead=0;swimlaneBody=0;strokeColor=inherit;top=0;left=0;bottom=0;right=0;collapsible=0;dropTarget=0;fillColor=none;points=[[0,0.5],[1,0.5]];portConstraint=eastwest;" parent="E9T-sOof5d7wJz7EKvrC-55" vertex="1">
          <mxGeometry y="40" width="230.6199999999999" height="139" as="geometry" />
        </mxCell>
        <mxCell id="E9T-sOof5d7wJz7EKvrC-59" value="&lt;div style=&quot;font-size: 16px; line-height: 19px; white-space: pre;&quot;&gt;&lt;div style=&quot;&quot;&gt;&lt;span style=&quot;background-color: rgb(255, 255, 255);&quot;&gt;&lt;font face=&quot;Times New Roman&quot; style=&quot;font-size: 16px;&quot; color=&quot;#0a0300&quot;&gt; delivery_point_id (PK)&lt;/font&gt;&lt;/span&gt;&lt;/div&gt;&lt;div style=&quot;&quot;&gt;&lt;span style=&quot;color: rgb(10, 3, 0); font-family: Xb1VAfM-ao1_9uIs2RKm; background-color: rgb(255, 255, 255);&quot;&gt; user_id (FK)&lt;/span&gt;&lt;/div&gt;&lt;div style=&quot;&quot;&gt;&lt;div&gt;&lt;span style=&quot;background-color: rgb(255, 255, 255);&quot;&gt;&lt;font face=&quot;Xb1VAfM-ao1_9uIs2RKm&quot; color=&quot;#0a0300&quot;&gt; order_id (FK)&lt;/font&gt;&lt;/span&gt;&lt;/div&gt;&lt;div&gt;&lt;span style=&quot;color: rgb(10, 3, 0); font-family: Xb1VAfM-ao1_9uIs2RKm; background-color: rgb(255, 255, 255);&quot;&gt; delivery_id (FK)&lt;/span&gt;&lt;span style=&quot;background-color: rgb(255, 255, 255);&quot;&gt;&lt;font face=&quot;Xb1VAfM-ao1_9uIs2RKm&quot; color=&quot;#0a0300&quot;&gt;&lt;br&gt;&lt;/font&gt;&lt;/span&gt;&lt;/div&gt;&lt;/div&gt;&lt;div style=&quot;&quot;&gt;&lt;span style=&quot;background-color: rgb(255, 255, 255);&quot;&gt;&lt;font style=&quot;font-size: 16px;&quot; face=&quot;Xb1VAfM-ao1_9uIs2RKm&quot; color=&quot;#0a0300&quot;&gt;&amp;nbsp;address VARCHAR&lt;/font&gt;&lt;/span&gt;&lt;/div&gt;&lt;div style=&quot;&quot;&gt;&lt;span style=&quot;background-color: rgb(255, 255, 255);&quot;&gt;&lt;font style=&quot;font-size: 16px;&quot; face=&quot;Xb1VAfM-ao1_9uIs2RKm&quot; color=&quot;#0a0300&quot;&gt; time VARCHAR&lt;/font&gt;&lt;/span&gt;&lt;/div&gt;&lt;div style=&quot;&quot;&gt;&lt;span style=&quot;background-color: rgb(255, 255, 255);&quot;&gt;&lt;font style=&quot;font-size: 16px;&quot; face=&quot;Xb1VAfM-ao1_9uIs2RKm&quot; color=&quot;#0a0300&quot;&gt;&amp;nbsp;order_storage_term VARCHAR&lt;/font&gt;&lt;/span&gt;&lt;/div&gt;&lt;/div&gt;" style="shape=partialRectangle;html=1;whiteSpace=wrap;connectable=0;strokeColor=inherit;overflow=hidden;fillColor=none;top=0;left=0;bottom=0;right=0;pointerEvents=1;align=left;" parent="E9T-sOof5d7wJz7EKvrC-58" vertex="1">
          <mxGeometry width="231" height="139" as="geometry">
            <mxRectangle width="231" height="139" as="alternateBounds" />
          </mxGeometry>
        </mxCell>
        <mxCell id="E9T-sOof5d7wJz7EKvrC-62" value="" style="shape=table;startSize=0;container=1;collapsible=0;childLayout=tableLayout;" parent="1" vertex="1">
          <mxGeometry x="540" y="450" width="239.12" height="200" as="geometry" />
        </mxCell>
        <mxCell id="E9T-sOof5d7wJz7EKvrC-63" value="" style="shape=tableRow;horizontal=0;startSize=0;swimlaneHead=0;swimlaneBody=0;strokeColor=inherit;top=0;left=0;bottom=0;right=0;collapsible=0;dropTarget=0;fillColor=none;points=[[0,0.5],[1,0.5]];portConstraint=eastwest;" parent="E9T-sOof5d7wJz7EKvrC-62" vertex="1">
          <mxGeometry width="239.12" height="58" as="geometry" />
        </mxCell>
        <mxCell id="E9T-sOof5d7wJz7EKvrC-64" value="&lt;div style=&quot;line-height: 19px; white-space: pre;&quot;&gt;&lt;span style=&quot;background-color: rgb(255, 255, 255);&quot;&gt;&lt;font face=&quot;Times New Roman&quot; style=&quot;font-size: 16px;&quot; color=&quot;#0a0300&quot;&gt;deliveries&lt;/font&gt;&lt;/span&gt;&lt;/div&gt;" style="shape=partialRectangle;html=1;whiteSpace=wrap;connectable=0;strokeColor=inherit;overflow=hidden;fillColor=none;top=0;left=0;bottom=0;right=0;pointerEvents=1;" parent="E9T-sOof5d7wJz7EKvrC-63" vertex="1">
          <mxGeometry width="239" height="58" as="geometry">
            <mxRectangle width="239" height="58" as="alternateBounds" />
          </mxGeometry>
        </mxCell>
        <mxCell id="E9T-sOof5d7wJz7EKvrC-65" value="" style="shape=tableRow;horizontal=0;startSize=0;swimlaneHead=0;swimlaneBody=0;strokeColor=inherit;top=0;left=0;bottom=0;right=0;collapsible=0;dropTarget=0;fillColor=none;points=[[0,0.5],[1,0.5]];portConstraint=eastwest;" parent="E9T-sOof5d7wJz7EKvrC-62" vertex="1">
          <mxGeometry y="58" width="239.12" height="142" as="geometry" />
        </mxCell>
        <mxCell id="E9T-sOof5d7wJz7EKvrC-66" value="&lt;div style=&quot;font-size: 16px; line-height: 19px; white-space: pre;&quot;&gt;&lt;div style=&quot;&quot;&gt;&lt;span style=&quot;background-color: rgb(255, 255, 255);&quot;&gt;&lt;font face=&quot;Times New Roman&quot; style=&quot;font-size: 16px;&quot; color=&quot;#0a0300&quot;&gt; delivery_id (PK)&lt;/font&gt;&lt;/span&gt;&lt;/div&gt;&lt;div style=&quot;&quot;&gt;&lt;span style=&quot;font-family: &amp;quot;Times New Roman&amp;quot;; white-space: normal;&quot;&gt;&amp;nbsp;order_id (FK)&lt;/span&gt;&lt;span style=&quot;background-color: rgb(255, 255, 255);&quot;&gt;&lt;font face=&quot;Times New Roman&quot; style=&quot;font-size: 16px;&quot; color=&quot;#0a0300&quot;&gt;&lt;br&gt;&lt;/font&gt;&lt;/span&gt;&lt;/div&gt;&lt;div style=&quot;&quot;&gt;&lt;span style=&quot;background-color: rgb(255, 255, 255);&quot;&gt;&lt;font style=&quot;font-size: 16px;&quot; face=&quot;eMbRWu4DokQ9QdMwVr3S&quot; color=&quot;#0a0300&quot;&gt; date TIMESTAMP WITH TIME &lt;/font&gt;&lt;/span&gt;&lt;/div&gt;&lt;div style=&quot;&quot;&gt;&lt;span style=&quot;background-color: rgb(255, 255, 255);&quot;&gt;&lt;font style=&quot;font-size: 16px;&quot; face=&quot;eMbRWu4DokQ9QdMwVr3S&quot; color=&quot;#0a0300&quot;&gt; ZONE&lt;/font&gt;&lt;/span&gt;&lt;/div&gt;&lt;div style=&quot;&quot;&gt;&lt;span style=&quot;background-color: rgb(255, 255, 255);&quot;&gt;&lt;font face=&quot;eMbRWu4DokQ9QdMwVr3S&quot; style=&quot;font-size: 16px;&quot; color=&quot;#0a0300&quot;&gt; address VARCHAR&lt;/font&gt;&lt;/span&gt;&lt;/div&gt;&lt;div style=&quot;&quot;&gt;&lt;font face=&quot;eMbRWu4DokQ9QdMwVr3S&quot; color=&quot;#0a0300&quot;&gt;&lt;span style=&quot;background-color: rgb(255, 255, 255);&quot;&gt; status VARCHAR&lt;/span&gt;&lt;/font&gt;&lt;/div&gt;&lt;/div&gt;" style="shape=partialRectangle;html=1;whiteSpace=wrap;connectable=0;strokeColor=inherit;overflow=hidden;fillColor=none;top=0;left=0;bottom=0;right=0;pointerEvents=1;align=left;" parent="E9T-sOof5d7wJz7EKvrC-65" vertex="1">
          <mxGeometry width="239" height="142" as="geometry">
            <mxRectangle width="239" height="142" as="alternateBounds" />
          </mxGeometry>
        </mxCell>
        <mxCell id="E9T-sOof5d7wJz7EKvrC-76" value="" style="shape=table;startSize=0;container=1;collapsible=0;childLayout=tableLayout;" parent="1" vertex="1">
          <mxGeometry x="-550" y="209.5" width="160" height="120" as="geometry" />
        </mxCell>
        <mxCell id="E9T-sOof5d7wJz7EKvrC-77" value="" style="shape=tableRow;horizontal=0;startSize=0;swimlaneHead=0;swimlaneBody=0;strokeColor=inherit;top=0;left=0;bottom=0;right=0;collapsible=0;dropTarget=0;fillColor=none;points=[[0,0.5],[1,0.5]];portConstraint=eastwest;" parent="E9T-sOof5d7wJz7EKvrC-76" vertex="1">
          <mxGeometry width="160" height="35" as="geometry" />
        </mxCell>
        <mxCell id="E9T-sOof5d7wJz7EKvrC-78" value="&lt;font face=&quot;Times New Roman&quot; style=&quot;font-size: 16px;&quot;&gt;products&lt;/font&gt;" style="shape=partialRectangle;html=1;whiteSpace=wrap;connectable=0;strokeColor=inherit;overflow=hidden;fillColor=none;top=0;left=0;bottom=0;right=0;pointerEvents=1;" parent="E9T-sOof5d7wJz7EKvrC-77" vertex="1">
          <mxGeometry width="160" height="35" as="geometry">
            <mxRectangle width="160" height="35" as="alternateBounds" />
          </mxGeometry>
        </mxCell>
        <mxCell id="E9T-sOof5d7wJz7EKvrC-79" value="" style="shape=tableRow;horizontal=0;startSize=0;swimlaneHead=0;swimlaneBody=0;strokeColor=inherit;top=0;left=0;bottom=0;right=0;collapsible=0;dropTarget=0;fillColor=none;points=[[0,0.5],[1,0.5]];portConstraint=eastwest;" parent="E9T-sOof5d7wJz7EKvrC-76" vertex="1">
          <mxGeometry y="35" width="160" height="85" as="geometry" />
        </mxCell>
        <mxCell id="E9T-sOof5d7wJz7EKvrC-80" value="&lt;div style=&quot;font-size: 16px; line-height: 19px; white-space: pre;&quot;&gt;&lt;div style=&quot;&quot;&gt;&lt;span style=&quot;background-color: rgb(255, 255, 255);&quot;&gt;&lt;font face=&quot;Times New Roman&quot; style=&quot;font-size: 16px;&quot; color=&quot;#0a0300&quot;&gt; product_id (PK)&lt;/font&gt;&lt;/span&gt;&lt;/div&gt;&lt;div style=&quot;&quot;&gt;&lt;span style=&quot;color: rgb(10, 3, 0); font-family: &amp;quot;Times New Roman&amp;quot;; background-color: rgb(255, 255, 255);&quot;&gt; order_id (PK)&lt;/span&gt;&lt;span style=&quot;background-color: rgb(255, 255, 255);&quot;&gt;&lt;font face=&quot;Times New Roman&quot; style=&quot;font-size: 16px;&quot; color=&quot;#0a0300&quot;&gt;&lt;br&gt;&lt;/font&gt;&lt;/span&gt;&lt;/div&gt;&lt;div style=&quot;&quot;&gt;&lt;span style=&quot;background-color: rgb(255, 255, 255);&quot;&gt;&lt;font face=&quot;Times New Roman&quot; style=&quot;font-size: 16px;&quot; color=&quot;#0a0300&quot;&gt; name VARCHAR&lt;/font&gt;&lt;/span&gt;&lt;/div&gt;&lt;div style=&quot;&quot;&gt;&lt;span style=&quot;background-color: rgb(255, 255, 255);&quot;&gt;&lt;font face=&quot;Times New Roman&quot; style=&quot;font-size: 16px;&quot; color=&quot;#0a0300&quot;&gt; status VARCHAR&lt;/font&gt;&lt;/span&gt;&lt;/div&gt;&lt;/div&gt;" style="shape=partialRectangle;html=1;whiteSpace=wrap;connectable=0;strokeColor=inherit;overflow=hidden;fillColor=none;top=0;left=0;bottom=0;right=0;pointerEvents=1;align=left;" parent="E9T-sOof5d7wJz7EKvrC-79" vertex="1">
          <mxGeometry width="160" height="85" as="geometry">
            <mxRectangle width="160" height="85" as="alternateBounds" />
          </mxGeometry>
        </mxCell>
        <mxCell id="2b2q7rTUSK4Gcw4__swm-18" value="products_in_orders" style="shape=table;startSize=41;container=1;collapsible=0;childLayout=tableLayout;fontFamily=Times New Roman;fontSize=16;" parent="1" vertex="1">
          <mxGeometry x="-320" y="259.5" width="170" height="79.5" as="geometry" />
        </mxCell>
        <mxCell id="2b2q7rTUSK4Gcw4__swm-19" value="" style="shape=tableRow;horizontal=0;startSize=0;swimlaneHead=0;swimlaneBody=0;strokeColor=inherit;top=0;left=0;bottom=0;right=0;collapsible=0;dropTarget=0;fillColor=none;points=[[0,0.5],[1,0.5]];portConstraint=eastwest;" parent="2b2q7rTUSK4Gcw4__swm-18" vertex="1">
          <mxGeometry y="41" width="170" height="39" as="geometry" />
        </mxCell>
        <mxCell id="2b2q7rTUSK4Gcw4__swm-20" value="&lt;span style=&quot;font-family: &amp;quot;Times New Roman&amp;quot;; font-size: 16px;&quot;&gt;product_id&lt;/span&gt;" style="shape=partialRectangle;html=1;whiteSpace=wrap;connectable=0;strokeColor=inherit;overflow=hidden;fillColor=none;top=0;left=0;bottom=0;right=0;pointerEvents=1;" parent="2b2q7rTUSK4Gcw4__swm-19" vertex="1">
          <mxGeometry width="90" height="39" as="geometry">
            <mxRectangle width="90" height="39" as="alternateBounds" />
          </mxGeometry>
        </mxCell>
        <mxCell id="2b2q7rTUSK4Gcw4__swm-21" value="&lt;span style=&quot;font-family: &amp;quot;Times New Roman&amp;quot;; font-size: 16px;&quot;&gt;order_id&lt;/span&gt;" style="shape=partialRectangle;html=1;whiteSpace=wrap;connectable=0;strokeColor=inherit;overflow=hidden;fillColor=none;top=0;left=0;bottom=0;right=0;pointerEvents=1;" parent="2b2q7rTUSK4Gcw4__swm-19" vertex="1">
          <mxGeometry x="90" width="80" height="39" as="geometry">
            <mxRectangle width="80" height="39" as="alternateBounds" />
          </mxGeometry>
        </mxCell>
        <mxCell id="2b2q7rTUSK4Gcw4__swm-22" value="" style="edgeStyle=entityRelationEdgeStyle;fontSize=12;html=1;endArrow=ERmany;endFill=0;startArrow=ERone;rounded=0;exitX=1.004;exitY=0.195;exitDx=0;exitDy=0;entryX=0;entryY=0.5;entryDx=0;entryDy=0;exitPerimeter=0;startFill=0;" parent="1" source="E9T-sOof5d7wJz7EKvrC-79" target="2b2q7rTUSK4Gcw4__swm-19" edge="1">
          <mxGeometry width="100" height="100" relative="1" as="geometry">
            <mxPoint x="-400" y="520" as="sourcePoint" />
            <mxPoint x="-70" y="230" as="targetPoint" />
          </mxGeometry>
        </mxCell>
        <mxCell id="2b2q7rTUSK4Gcw4__swm-23" value="" style="edgeStyle=entityRelationEdgeStyle;fontSize=12;html=1;endArrow=ERone;endFill=0;startArrow=ERmany;rounded=0;exitX=1;exitY=0.75;exitDx=0;exitDy=0;entryX=-0.004;entryY=0.233;entryDx=0;entryDy=0;entryPerimeter=0;startFill=0;" parent="1" source="2b2q7rTUSK4Gcw4__swm-18" target="E9T-sOof5d7wJz7EKvrC-53" edge="1">
          <mxGeometry width="100" height="100" relative="1" as="geometry">
            <mxPoint x="-240" y="520" as="sourcePoint" />
            <mxPoint x="-140" y="420" as="targetPoint" />
          </mxGeometry>
        </mxCell>
        <mxCell id="2b2q7rTUSK4Gcw4__swm-28" value="orders_in_deliveries" style="shape=table;startSize=30;container=1;collapsible=0;childLayout=tableLayout;fontFamily=Times New Roman;fontSize=16;" parent="1" vertex="1">
          <mxGeometry x="240" y="290" width="210" height="70" as="geometry" />
        </mxCell>
        <mxCell id="2b2q7rTUSK4Gcw4__swm-29" value="" style="shape=tableRow;horizontal=0;startSize=0;swimlaneHead=0;swimlaneBody=0;strokeColor=inherit;top=0;left=0;bottom=0;right=0;collapsible=0;dropTarget=0;fillColor=none;points=[[0,0.5],[1,0.5]];portConstraint=eastwest;" parent="2b2q7rTUSK4Gcw4__swm-28" vertex="1">
          <mxGeometry y="30" width="210" height="40" as="geometry" />
        </mxCell>
        <mxCell id="2b2q7rTUSK4Gcw4__swm-30" value="&lt;font style=&quot;font-size: 16px;&quot; face=&quot;Times New Roman&quot;&gt;order_id&lt;/font&gt;" style="shape=partialRectangle;html=1;whiteSpace=wrap;connectable=0;strokeColor=inherit;overflow=hidden;fillColor=none;top=0;left=0;bottom=0;right=0;pointerEvents=1;" parent="2b2q7rTUSK4Gcw4__swm-29" vertex="1">
          <mxGeometry width="100" height="40" as="geometry">
            <mxRectangle width="100" height="40" as="alternateBounds" />
          </mxGeometry>
        </mxCell>
        <mxCell id="2b2q7rTUSK4Gcw4__swm-31" value="&lt;font face=&quot;Times New Roman&quot; style=&quot;font-size: 16px;&quot;&gt;deliveries_id&lt;/font&gt;" style="shape=partialRectangle;html=1;whiteSpace=wrap;connectable=0;strokeColor=inherit;overflow=hidden;fillColor=none;top=0;left=0;bottom=0;right=0;pointerEvents=1;" parent="2b2q7rTUSK4Gcw4__swm-29" vertex="1">
          <mxGeometry x="100" width="110" height="40" as="geometry">
            <mxRectangle width="110" height="40" as="alternateBounds" />
          </mxGeometry>
        </mxCell>
        <mxCell id="2b2q7rTUSK4Gcw4__swm-36" value="" style="edgeStyle=entityRelationEdgeStyle;fontSize=12;html=1;endArrow=ERmany;startArrow=ERone;rounded=0;startFill=0;endFill=0;entryX=0;entryY=0.5;entryDx=0;entryDy=0;exitX=1.01;exitY=0.848;exitDx=0;exitDy=0;exitPerimeter=0;" parent="1" source="E9T-sOof5d7wJz7EKvrC-53" target="2b2q7rTUSK4Gcw4__swm-29" edge="1">
          <mxGeometry width="100" height="100" relative="1" as="geometry">
            <mxPoint x="180" y="349" as="sourcePoint" />
            <mxPoint x="270" y="440" as="targetPoint" />
          </mxGeometry>
        </mxCell>
        <mxCell id="2b2q7rTUSK4Gcw4__swm-37" value="" style="edgeStyle=entityRelationEdgeStyle;fontSize=12;html=1;endArrow=ERone;startArrow=ERmany;rounded=0;entryX=-0.004;entryY=0.2;entryDx=0;entryDy=0;entryPerimeter=0;exitX=1;exitY=0.5;exitDx=0;exitDy=0;startFill=0;endFill=0;" parent="1" source="2b2q7rTUSK4Gcw4__swm-29" target="E9T-sOof5d7wJz7EKvrC-65" edge="1">
          <mxGeometry width="100" height="100" relative="1" as="geometry">
            <mxPoint x="450" y="540" as="sourcePoint" />
            <mxPoint x="550" y="440" as="targetPoint" />
          </mxGeometry>
        </mxCell>
        <mxCell id="2b2q7rTUSK4Gcw4__swm-45" value="" style="edgeStyle=entityRelationEdgeStyle;fontSize=12;html=1;endArrow=ERmany;startArrow=ERmandOne;rounded=0;startFill=0;endFill=0;exitX=1.003;exitY=0.197;exitDx=0;exitDy=0;exitPerimeter=0;" parent="1" source="E9T-sOof5d7wJz7EKvrC-65" target="E9T-sOof5d7wJz7EKvrC-58" edge="1">
          <mxGeometry width="100" height="100" relative="1" as="geometry">
            <mxPoint x="832.5" y="630" as="sourcePoint" />
            <mxPoint x="890" y="400" as="targetPoint" />
            <Array as="points">
              <mxPoint x="900" y="480" />
              <mxPoint x="830" y="360" />
            </Array>
          </mxGeometry>
        </mxCell>
        <mxCell id="wmr54m42OXE8aB2sKYUo-11" value="" style="edgeStyle=entityRelationEdgeStyle;fontSize=12;html=1;endArrow=ERzeroToMany;startArrow=ERone;rounded=0;entryX=-0.001;entryY=0.199;entryDx=0;entryDy=0;entryPerimeter=0;exitX=1.002;exitY=0.285;exitDx=0;exitDy=0;exitPerimeter=0;startFill=0;endFill=0;" parent="1" source="E9T-sOof5d7wJz7EKvrC-48" target="E9T-sOof5d7wJz7EKvrC-58" edge="1">
          <mxGeometry width="100" height="100" relative="1" as="geometry">
            <mxPoint x="370" y="410" as="sourcePoint" />
            <mxPoint x="470" y="310" as="targetPoint" />
            <Array as="points">
              <mxPoint x="430" y="190" />
              <mxPoint x="440" y="170" />
            </Array>
          </mxGeometry>
        </mxCell>
        <mxCell id="wmr54m42OXE8aB2sKYUo-12" value="" style="edgeStyle=entityRelationEdgeStyle;fontSize=12;html=1;endArrow=ERzeroToMany;endFill=0;rounded=0;startArrow=ERone;startFill=0;exitX=-0.001;exitY=0.265;exitDx=0;exitDy=0;exitPerimeter=0;entryX=1.008;entryY=0.178;entryDx=0;entryDy=0;entryPerimeter=0;" parent="1" source="E9T-sOof5d7wJz7EKvrC-48" target="E9T-sOof5d7wJz7EKvrC-53" edge="1">
          <mxGeometry width="100" height="100" relative="1" as="geometry">
            <mxPoint x="180" y="60" as="sourcePoint" />
            <mxPoint x="240" y="210" as="targetPoint" />
          </mxGeometry>
        </mxCell>
      </root>
    </mxGraphModel>
  </diagram>
</mxfile>
